<svg width="176" height="58" viewBox="0 0 176 58" fill="none" xmlns="http://www.w3.org/2000/svg">
<rect width="176" height="58" rx="29" fill="#756BEE"/>
<path d="M61.2417 23.12V35H59.2977V23.12H61.2417ZM53.4297 23.12V35H51.5037V23.12H53.4297ZM60.2697 28.16V29.816H52.4757V28.16H60.2697ZM66.6836 23.12V35H64.7576V23.12H66.6836ZM75.0488 23.12C76.3208 23.12 77.3288 23.438 78.0728 24.074C78.8288 24.71 79.2068 25.568 79.2068 26.648C79.2068 27.764 78.8288 28.628 78.0728 29.24C77.3288 29.84 76.3208 30.14 75.0488 30.14L74.8688 30.248H72.1148V35H70.2068V23.12H75.0488ZM74.9048 28.646C75.6848 28.646 76.2608 28.49 76.6328 28.178C77.0168 27.854 77.2088 27.362 77.2088 26.702C77.2088 26.054 77.0168 25.568 76.6328 25.244C76.2608 24.92 75.6848 24.758 74.9048 24.758H72.1148V28.646H74.9048ZM76.0388 29.042L79.9088 35H77.6948L74.3828 29.798L76.0388 29.042ZM82.3005 35V23.12H90.9045V24.776H84.2265V28.196H89.4465V29.816H84.2265V33.344H91.1565V35H82.3005ZM111.747 23.12V35H109.965V28.124L110.109 24.848H110.091L106.473 35H104.871L101.253 24.848H101.235L101.379 28.124V35H99.5974V23.12H102.459L104.853 29.996L105.681 32.822H105.717L106.563 29.996L108.939 23.12H111.747ZM115.277 35V23.12H123.881V24.776H117.203V28.196H122.423V29.816H117.203V33.344H124.133V35H115.277Z" fill="white"/>
</svg>
