<svg width="134" height="42" viewBox="0 0 134 42" fill="none" xmlns="http://www.w3.org/2000/svg">
<path d="M0 21C0 9.40202 9.40202 0 21 0H113C124.598 0 134 9.40202 134 21C134 32.598 124.598 42 113 42H21C9.40202 42 0 32.598 0 21Z" fill="#756BEE"/>
<path d="M46.9535 23.2C46.7401 23.84 46.4201 24.384 45.9935 24.832C45.5668 25.2693 45.0655 25.6 44.4895 25.824C43.9135 26.048 43.2788 26.16 42.5855 26.16C41.5721 26.16 40.6921 25.9413 39.9455 25.504C39.1988 25.0667 38.6228 24.4427 38.2175 23.632C37.8121 22.8213 37.6095 21.8507 37.6095 20.72C37.6095 19.5893 37.8121 18.6187 38.2175 17.808C38.6228 16.9973 39.1988 16.3733 39.9455 15.936C40.6921 15.4987 41.5668 15.28 42.5695 15.28C43.2628 15.28 43.8868 15.376 44.4415 15.568C45.0068 15.76 45.4868 16.048 45.8815 16.432C46.2761 16.816 46.5801 17.296 46.7935 17.872L45.1775 18.592C44.9641 17.9627 44.6548 17.504 44.2495 17.216C43.8441 16.9173 43.3161 16.768 42.6655 16.768C42.0148 16.768 41.4441 16.9227 40.9535 17.232C40.4628 17.5413 40.0788 17.9893 39.8015 18.576C39.5348 19.1627 39.4015 19.8773 39.4015 20.72C39.4015 21.552 39.5295 22.2667 39.7855 22.864C40.0415 23.4507 40.4095 23.8987 40.8895 24.208C41.3695 24.5173 41.9455 24.672 42.6175 24.672C43.2681 24.672 43.8281 24.5067 44.2975 24.176C44.7775 23.8347 45.1188 23.328 45.3215 22.656L46.9535 23.2ZM52.371 17.84C53.1496 17.84 53.8376 18.0053 54.435 18.336C55.0323 18.6667 55.4963 19.1467 55.827 19.776C56.1683 20.3947 56.339 21.136 56.339 22C56.339 22.864 56.1683 23.6107 55.827 24.24C55.4963 24.8587 55.0323 25.3333 54.435 25.664C53.8376 25.9947 53.1496 26.16 52.371 26.16C51.5923 26.16 50.9043 25.9947 50.307 25.664C49.7096 25.3333 49.2403 24.8587 48.899 24.24C48.5576 23.6107 48.387 22.864 48.387 22C48.387 21.136 48.5576 20.3947 48.899 19.776C49.2403 19.1467 49.7096 18.6667 50.307 18.336C50.9043 18.0053 51.5923 17.84 52.371 17.84ZM52.371 19.184C51.891 19.184 51.4803 19.296 51.139 19.52C50.8083 19.7333 50.5523 20.048 50.371 20.464C50.1896 20.88 50.099 21.392 50.099 22C50.099 22.5973 50.1896 23.1093 50.371 23.536C50.5523 23.952 50.8083 24.272 51.139 24.496C51.4803 24.7093 51.891 24.816 52.371 24.816C52.851 24.816 53.2563 24.7093 53.587 24.496C53.9176 24.272 54.1736 23.952 54.355 23.536C54.5363 23.1093 54.627 22.5973 54.627 22C54.627 21.392 54.5363 20.88 54.355 20.464C54.1736 20.048 53.9176 19.7333 53.587 19.52C53.2563 19.296 52.851 19.184 52.371 19.184ZM58.4927 26V18H60.0127L60.1247 20.08L59.9007 19.856C60.05 19.3973 60.2634 19.0187 60.5407 18.72C60.8287 18.4107 61.1647 18.1867 61.5487 18.048C61.9434 17.9093 62.3594 17.84 62.7967 17.84C63.362 17.84 63.8687 17.952 64.3167 18.176C64.7754 18.3893 65.138 18.7147 65.4047 19.152C65.6714 19.5893 65.8047 20.144 65.8047 20.816V26H64.0927V21.344C64.0927 20.5547 63.9274 20.0107 63.5967 19.712C63.2767 19.4027 62.8714 19.248 62.3807 19.248C62.0287 19.248 61.6874 19.3333 61.3567 19.504C61.026 19.664 60.7487 19.9253 60.5247 20.288C60.3114 20.6507 60.2047 21.136 60.2047 21.744V26H58.4927ZM70.6412 15.648V23.6C70.6412 23.9947 70.7425 24.2827 70.9452 24.464C71.1585 24.6453 71.4412 24.736 71.7932 24.736C72.0812 24.736 72.3319 24.6933 72.5452 24.608C72.7585 24.512 72.9559 24.384 73.1372 24.224L73.5212 25.472C73.2759 25.6853 72.9719 25.856 72.6092 25.984C72.2572 26.1013 71.8625 26.16 71.4252 26.16C70.9665 26.16 70.5452 26.0853 70.1612 25.936C69.7772 25.7867 69.4785 25.5467 69.2652 25.216C69.0519 24.8747 68.9399 24.432 68.9292 23.888V16.128L70.6412 15.648ZM73.3932 18V19.344H67.3932V18H73.3932ZM79.7573 20.864C79.7573 20.3307 79.608 19.92 79.3093 19.632C79.0213 19.3333 78.6213 19.184 78.1093 19.184C77.6293 19.184 77.2187 19.296 76.8773 19.52C76.536 19.744 76.2853 20.1067 76.1253 20.608L74.6853 20C74.888 19.3493 75.2827 18.8267 75.8693 18.432C76.4667 18.0373 77.2347 17.84 78.1733 17.84C78.8133 17.84 79.3787 17.9467 79.8693 18.16C80.36 18.3627 80.744 18.672 81.0213 19.088C81.3093 19.504 81.4533 20.0373 81.4533 20.688V24.256C81.4533 24.6507 81.6507 24.848 82.0453 24.848C82.2373 24.848 82.424 24.8213 82.6053 24.768L82.5093 25.952C82.264 26.0693 81.9547 26.128 81.5813 26.128C81.24 26.128 80.9307 26.0693 80.6533 25.952C80.3867 25.824 80.1733 25.6373 80.0133 25.392C79.864 25.136 79.7893 24.8213 79.7893 24.448V24.336L80.1413 24.32C80.0453 24.736 79.848 25.0827 79.5493 25.36C79.2507 25.6267 78.904 25.8293 78.5093 25.968C78.1147 26.096 77.7147 26.16 77.3093 26.16C76.808 26.16 76.3547 26.08 75.9493 25.92C75.5547 25.76 75.24 25.52 75.0053 25.2C74.7813 24.8693 74.6693 24.464 74.6693 23.984C74.6693 23.3867 74.8613 22.896 75.2453 22.512C75.64 22.128 76.1947 21.8667 76.9093 21.728L80.0133 21.12L79.9973 22.32L77.7413 22.784C77.2933 22.8693 76.9573 22.992 76.7333 23.152C76.5093 23.312 76.3973 23.5467 76.3973 23.856C76.3973 24.1547 76.5093 24.3947 76.7333 24.576C76.968 24.7467 77.2773 24.832 77.6613 24.832C77.928 24.832 78.184 24.8 78.4293 24.736C78.6853 24.672 78.9147 24.5707 79.1173 24.432C79.32 24.2827 79.4747 24.096 79.5813 23.872C79.6987 23.6373 79.7573 23.36 79.7573 23.04V20.864ZM87.6987 17.84C88.3387 17.84 88.8827 17.936 89.3307 18.128C89.7894 18.3093 90.1734 18.5707 90.4827 18.912C90.792 19.2533 91.0267 19.6427 91.1867 20.08L89.5707 20.72C89.432 20.2293 89.208 19.856 88.8987 19.6C88.6 19.3333 88.2054 19.2 87.7147 19.2C87.2347 19.2 86.824 19.312 86.4827 19.536C86.1414 19.7493 85.88 20.064 85.6987 20.48C85.528 20.896 85.4427 21.408 85.4427 22.016C85.4427 22.6133 85.5334 23.12 85.7147 23.536C85.896 23.952 86.1574 24.2667 86.4987 24.48C86.84 24.6933 87.2454 24.8 87.7147 24.8C88.0774 24.8 88.392 24.7413 88.6587 24.624C88.9254 24.496 89.144 24.32 89.3147 24.096C89.496 23.8613 89.6187 23.5787 89.6827 23.248L91.2347 23.776C91.0854 24.256 90.8507 24.6773 90.5307 25.04C90.2214 25.392 89.832 25.6693 89.3627 25.872C88.8934 26.064 88.3547 26.16 87.7467 26.16C86.9574 26.16 86.2587 25.9947 85.6507 25.664C85.0427 25.3333 84.568 24.8587 84.2267 24.24C83.896 23.6107 83.7307 22.864 83.7307 22C83.7307 21.136 83.896 20.3947 84.2267 19.776C84.568 19.1467 85.0374 18.6667 85.6347 18.336C86.2427 18.0053 86.9307 17.84 87.6987 17.84ZM95.5631 15.648V23.6C95.5631 23.9947 95.6644 24.2827 95.8671 24.464C96.0804 24.6453 96.3631 24.736 96.7151 24.736C97.0031 24.736 97.2537 24.6933 97.4671 24.608C97.6804 24.512 97.8777 24.384 98.0591 24.224L98.4431 25.472C98.1977 25.6853 97.8937 25.856 97.5311 25.984C97.1791 26.1013 96.7844 26.16 96.3471 26.16C95.8884 26.16 95.4671 26.0853 95.0831 25.936C94.6991 25.7867 94.4004 25.5467 94.1871 25.216C93.9737 24.8747 93.8617 24.432 93.8511 23.888V16.128L95.5631 15.648ZM98.3151 18V19.344H92.3151V18H98.3151Z" fill="white"/>
</svg>
