<svg width="14" height="14" viewBox="0 0 14 14" fill="none" xmlns="http://www.w3.org/2000/svg">
<g clip-path="url(#clip0_1_2018)">
<path d="M7.00008 14C10.8661 14 14.0001 10.866 14.0001 7.00002C14.0001 3.13401 10.8661 0 7.00008 0C3.13407 0 6.10352e-05 3.13401 6.10352e-05 7.00002C6.10352e-05 10.866 3.13407 14 7.00008 14Z" fill="#FFC10E"/>
<path d="M5.38022 3.24829C4.96273 3.24829 4.5749 3.45188 4.34177 3.79277L4.29368 3.85389L4.26151 3.81289C4.03104 3.45953 3.64252 3.24841 3.22075 3.24841C2.50106 3.24841 1.97882 3.7708 1.97882 4.49025C1.97882 5.55257 3.90209 7.11838 4.04235 7.2311C4.10855 7.29444 4.19522 7.32926 4.28718 7.32926C4.37914 7.32926 4.46581 7.29455 4.53201 7.23101C4.67271 7.11737 6.62206 5.52705 6.62206 4.49025C6.62206 3.77068 6.09979 3.24829 5.38022 3.24829Z" fill="#ED3533"/>
<path d="M10.8323 3.24829C10.4148 3.24829 10.027 3.45188 9.79385 3.79277L9.74576 3.85389L9.71359 3.81289C9.48312 3.45953 9.09461 3.24841 8.67284 3.24841C7.95315 3.24841 7.43091 3.7708 7.43091 4.49025C7.43091 5.55257 9.35418 7.11838 9.49444 7.2311C9.56064 7.29444 9.64731 7.32926 9.73926 7.32926C9.83111 7.32926 9.91778 7.29455 9.98409 7.23101C10.1247 7.11749 12.074 5.52705 12.074 4.49025C12.0741 3.77068 11.5519 3.24829 10.8323 3.24829Z" fill="#ED3533"/>
<path d="M10.1398 9.36022C8.38867 11.1422 5.5711 11.1283 3.83453 9.33369C3.58639 9.07725 3.19599 9.46842 3.4438 9.72442C5.38663 11.7322 8.57327 11.743 10.5306 9.75095C10.7805 9.49672 10.3899 9.10576 10.1398 9.36022Z" fill="#333333"/>
</g>
<defs>
<clipPath id="clip0_1_2018">
<rect width="14" height="14" fill="white"/>
</clipPath>
</defs>
</svg>
